<?xml version="1.0"?>
<svg xmlns="http://www.w3.org/2000/svg" viewBox="0 0 24 24">
  <path fill="none" d="M0 0h24v24H0Z"/>
  <g fill="#7357F6">
    <path d="M15.39 13.58l2.317 1.88c.53.43 1.32.35 1.75-.19 .18-.23.28-.51.28-.79l0-1.5 -.75.75c2.07 0 3.75-1.68 3.75-3.75v-5c0-2.08-1.68-3.75-3.75-3.75h-6c-2.08 0-3.75 1.67-3.75 3.75v5c0 2.07 1.67 3.75 3.75 3.75h2.86l-.48-.17Zm.94-1.17c-.14-.11-.31-.17-.48-.17h-2.87c-1.25 0-2.25-1.01-2.25-2.25v-5c0-1.25 1-2.25 2.25-2.25h6c1.24 0 2.25 1 2.25 2.25v5c0 1.24-1.01 2.25-2.25 2.25 -.42 0-.75.33-.75.75v1.49c0-.06.01-.12.05-.16 .08-.11.24-.13.35-.04l-2.32-1.89Z"/>
    <path d="M13.25 16v1c0 1.24-1.01 2.25-2.25 2.25H8.13c-.18 0-.34.05-.48.16L5.33 21.29c.1-.09.26-.08.35.03 .03.04.05.1.05.15l0-1.5c0-.42-.34-.75-.75-.75 -1.25 0-2.25-1.01-2.25-2.25v-4c0-1.25 1-2.25 2.25-2.25h2c.41 0 .75-.34.75-.75 0-.42-.34-.75-.75-.75h-2c-2.08 0-3.75 1.67-3.75 3.75v4c0 2.07 1.67 3.75 3.75 3.75l-.75-.75v1.49c0 .28.09.56.28.78 .43.53 1.22.61 1.75.18l2.31-1.89 -.48.16h2.86c2.07 0 3.75-1.68 3.75-3.75v-1c0-.42-.34-.75-.75-.75 -.42 0-.75.33-.75.75Z"/>
    <path d="M15.29 6.04l.16.17c.29.3.78.29 1.07-.02l.17-.19c.32-.35.85-.37 1.19-.05 .01.01.01.01.02.02l.03.03c.35.36.35.96-.01 1.33L16.16 9.1c-.13.12-.33.12-.46 0 -.01-.01-.01-.01-.01-.01L13.93 7.3c-.36-.37-.36-.97 0-1.34 .34-.35.91-.36 1.26-.01 0 0 0 0 0 0Zm1.06-1.06c-.02-.02-.02-.02-.03-.03 -.95-.93-2.47-.92-3.39.02 -.94.95-.94 2.47-.01 3.43l1.75 1.78c0 .01 0 .01.02.02 .71.7 1.86.69 2.57-.03l1.75-1.79c.93-.96.93-2.48 0-3.44l-.04-.04c-.04-.04-.04-.04-.08-.08 -.95-.89-2.43-.84-3.32.1l-.18.18 .54.51 .53-.53 -.17-.18Z"/>
    <path d="M4.8 14.99c0-.39.31-.7.7-.7 .38 0 .69.31.69.7 -.01.38-.32.69-.7.69 -.39 0-.71-.32-.71-.7 0 .41.33.74.75.74 .41-.01.74-.34.74-.76 -.01-.45-.36-.8-.81-.8 -.45 0-.8.35-.8.79 -.01.44.35.8.79.8 .44 0 .8-.36.8-.8 0-.42-.34-.76-.75-.76 -.42-.01-.76.33-.76.74Z"/>
    <path d="M7.3 14.99c0-.39.31-.7.7-.7 .38 0 .69.31.69.7 -.01.38-.32.69-.7.69 -.39 0-.71-.32-.71-.7 0 .41.33.74.75.74 .41-.01.74-.34.74-.76 -.01-.45-.36-.8-.81-.8 -.45 0-.8.35-.8.79 -.01.44.35.8.79.8 .44 0 .8-.36.8-.8 0-.42-.34-.76-.75-.76 -.42-.01-.76.33-.76.74Z"/>
    <path d="M9.8 14.99c0-.39.31-.7.7-.7 .38 0 .69.31.69.7 -.01.38-.32.69-.7.69 -.39 0-.71-.32-.71-.7 0 .41.33.74.75.74 .41-.01.74-.34.74-.76 -.01-.45-.36-.8-.81-.8 -.45 0-.8.35-.8.79 -.01.44.35.8.79.8 .44 0 .8-.36.8-.8 0-.42-.34-.76-.75-.76 -.42-.01-.76.33-.76.74Z"/>
  </g>
</svg>
