<?xml version="1.0"?>
<svg xmlns="http://www.w3.org/2000/svg" viewBox="0 0 236 203">
  <defs>
    <style>.cls-1{fill:#fff;}.cls-2{fill:#33475b;}.cls-3{fill:#516f90;}.cls-4{fill:#ff7a59;}</style>
  </defs>
  <title>provider-badge-color</title>
  <g id="Layer_2" data-name="Layer 2">
    <g id="Layer_1-2" data-name="Layer 1">
      <rect class="cls-1" x="33" y="16.5" width="170" height="170" rx="0.1" transform="translate(236 203) rotate(180)"/>
      <path class="cls-1" d="M202.9,203H33.1a16.62,16.62,0,0,1-16.6-16.6V16.6A16.62,16.62,0,0,1,33.1,0H202.9a16.62,16.62,0,0,1,16.6,16.6V186.4A16.62,16.62,0,0,1,202.9,203ZM49.5,170h137V33H49.5Z"/>
      <rect class="cls-1" x="33" y="16.5" width="170" height="170" rx="0.1" transform="translate(236 203) rotate(180)"/>
      <path class="cls-2" d="M202.9,194.5H33.1a8.1,8.1,0,0,1-8.1-8.1V16.6a8.1,8.1,0,0,1,8.1-8.1H202.9a8.1,8.1,0,0,1,8.1,8.1V186.4A8.1,8.1,0,0,1,202.9,194.5ZM41,178.5H195V24.5H41Z"/>
      <rect class="cls-3" x="8" y="75.5" width="220" height="46" rx="3.02"/>
      <path class="cls-1" d="M225,75.5a3,3,0,0,1,3,3v40a3,3,0,0,1-3,3H11a3,3,0,0,1-3-3v-40a3,3,0,0,1,3-3H225m0-8H11a11,11,0,0,0-11,11v40a11,11,0,0,0,11,11H225a11,11,0,0,0,11-11v-40a11,11,0,0,0-11-11Z"/>
      <path class="cls-1" d="M65.73,87.47H72.2a13.9,13.9,0,0,1,3.08.31,6.27,6.27,0,0,1,2.35,1,4.61,4.61,0,0,1,1.51,1.79,6,6,0,0,1,.53,2.63A5.68,5.68,0,0,1,79.06,96a5,5,0,0,1-1.67,1.81,7.17,7.17,0,0,1-2.45,1,13.46,13.46,0,0,1-3,.31H69.26v8.2H65.73Zm6,8.65A10.85,10.85,0,0,0,73.37,96a4.8,4.8,0,0,0,1.4-.45,2.61,2.61,0,0,0,1-.88,2.68,2.68,0,0,0,.37-1.46,2.39,2.39,0,0,0-1.33-2.27,4.12,4.12,0,0,0-1.38-.4,11.66,11.66,0,0,0-1.58-.1H69.26v5.68Z"/>
      <path class="cls-1" d="M82.22,93.85h3.22v2.24h.06a4.92,4.92,0,0,1,1.56-1.9,4,4,0,0,1,2.36-.73l.42,0a1.43,1.43,0,0,1,.39.07v3.08a4.64,4.64,0,0,0-.58-.12l-.46,0a3.59,3.59,0,0,0-1.85.42,3.33,3.33,0,0,0-1.09,1,3.53,3.53,0,0,0-.53,1.2,4.94,4.94,0,0,0-.14,1v7.19H82.22Z"/>
      <path class="cls-1" d="M91.55,100.52a7,7,0,0,1,.58-2.9A6.61,6.61,0,0,1,96,94a8.27,8.27,0,0,1,5.72,0A6.84,6.84,0,0,1,104,95.39a7,7,0,0,1,1.56,2.23,7.18,7.18,0,0,1,.57,2.9,7.26,7.26,0,0,1-.57,2.91,7,7,0,0,1-1.56,2.25,7.14,7.14,0,0,1-2.32,1.48,8,8,0,0,1-5.72,0,7.14,7.14,0,0,1-2.32-1.48,6.8,6.8,0,0,1-1.55-2.25A7.1,7.1,0,0,1,91.55,100.52Zm3.42,0a5.4,5.4,0,0,0,.24,1.57,4.3,4.3,0,0,0,.71,1.4,3.94,3.94,0,0,0,1.2,1,4.08,4.08,0,0,0,3.48,0,3.94,3.94,0,0,0,1.2-1,4.33,4.33,0,0,0,.72-1.4,5.74,5.74,0,0,0,.23-1.57,5.61,5.61,0,0,0-.23-1.56,4.33,4.33,0,0,0-.72-1.38,3.74,3.74,0,0,0-5.88,0A4.3,4.3,0,0,0,95.21,99,5.28,5.28,0,0,0,95,100.52Z"/>
      <path class="cls-1" d="M107,93.85h3.67l3.53,9.81h0l3.56-9.81h3.55L116,107.29h-3.58Z"/>
      <path class="cls-1" d="M123,89.29a1.93,1.93,0,0,1,.6-1.41,2.07,2.07,0,0,1,1.53-.6,2.23,2.23,0,0,1,1.55.57,2,2,0,0,1,0,2.88,2.19,2.19,0,0,1-1.55.58,2.07,2.07,0,0,1-1.53-.6A2,2,0,0,1,123,89.29Zm.47,4.56h3.36v13.44h-3.36Z"/>
      <path class="cls-1" d="M144.34,107.29h-3.19v-2h-.05a4.62,4.62,0,0,1-1.95,1.79,6,6,0,0,1-2.67.62,6.29,6.29,0,0,1-4.83-2.12,6.81,6.81,0,0,1-1.32-2.27,8.51,8.51,0,0,1,0-5.55,6.74,6.74,0,0,1,1.35-2.24,6.27,6.27,0,0,1,4.7-2.05,5.9,5.9,0,0,1,1.65.21,6.32,6.32,0,0,1,1.28.52,5.8,5.8,0,0,1,.94.67,6.47,6.47,0,0,1,.64.7H141V86.13h3.35Zm-11.06-6.77a5.4,5.4,0,0,0,.24,1.57,4.33,4.33,0,0,0,.72,1.4,3.72,3.72,0,0,0,1.2,1,3.86,3.86,0,0,0,3.36,0,3.92,3.92,0,0,0,1.25-1,4.48,4.48,0,0,0,.78-1.38,4.64,4.64,0,0,0,.27-1.55,4.76,4.76,0,0,0-.27-1.57,4.36,4.36,0,0,0-.78-1.4,4.24,4.24,0,0,0-1.25-1,3.44,3.44,0,0,0-1.65-.39,3.68,3.68,0,0,0-1.71.37,3.57,3.57,0,0,0-1.2,1,4.33,4.33,0,0,0-.72,1.38A5.28,5.28,0,0,0,133.28,100.52Z"/>
      <path class="cls-1" d="M161.12,100.74v.45a3.4,3.4,0,0,1,0,.45H150.87a3.47,3.47,0,0,0,.38,1.33,3.29,3.29,0,0,0,.86,1,4.18,4.18,0,0,0,1.2.69,3.9,3.9,0,0,0,1.4.25,4.47,4.47,0,0,0,2.13-.46,4.06,4.06,0,0,0,1.43-1.27l2.24,1.79a6.75,6.75,0,0,1-5.77,2.69,8.39,8.39,0,0,1-2.89-.49,7,7,0,0,1-2.28-1.39,6.26,6.26,0,0,1-1.51-2.2,7.61,7.61,0,0,1-.55-3,7.75,7.75,0,0,1,.55-3,6.52,6.52,0,0,1,1.5-2.27A6.63,6.63,0,0,1,151.81,94a7.68,7.68,0,0,1,2.82-.52,7.31,7.31,0,0,1,2.59.46,5.55,5.55,0,0,1,2.05,1.38,6.21,6.21,0,0,1,1.36,2.26A9.32,9.32,0,0,1,161.12,100.74Zm-3.36-1.51a4.16,4.16,0,0,0-.18-1.23,2.85,2.85,0,0,0-.57-1,2.93,2.93,0,0,0-1-.71A3.41,3.41,0,0,0,154.6,96a3.8,3.8,0,0,0-2.56.91,3.36,3.36,0,0,0-1.17,2.34Z"/>
      <path class="cls-1" d="M164.28,93.85h3.22v2.24h.05a5,5,0,0,1,1.57-1.9,4,4,0,0,1,2.35-.73l.42,0a1.59,1.59,0,0,1,.4.07v3.08a4.64,4.64,0,0,0-.58-.12l-.46,0a3.57,3.57,0,0,0-1.85.42,3.23,3.23,0,0,0-1.09,1,3.53,3.53,0,0,0-.53,1.2,4.29,4.29,0,0,0-.14,1v7.19h-3.36Z"/>
      <path class="cls-2" d="M65.36,142.47a1.61,1.61,0,0,0-.57-.44,1.77,1.77,0,0,0-.73-.17,2.12,2.12,0,0,0-.44,0,1.61,1.61,0,0,0-.4.17,1.07,1.07,0,0,0-.3.3.81.81,0,0,0-.11.45.78.78,0,0,0,.1.41.93.93,0,0,0,.27.29,1.91,1.91,0,0,0,.43.21l.55.18c.22.07.46.15.7.25a2.3,2.3,0,0,1,.67.37,1.66,1.66,0,0,1,.5.58,1.75,1.75,0,0,1,.2.87,2.19,2.19,0,0,1-.21,1,2.08,2.08,0,0,1-.56.71,2.76,2.76,0,0,1-.82.42,3.64,3.64,0,0,1-1,.14A3.72,3.72,0,0,1,62.3,148a2.63,2.63,0,0,1-1.08-.75l.9-.84a1.77,1.77,0,0,0,.69.57,2,2,0,0,0,.86.21,1.86,1.86,0,0,0,.45-.06,1.17,1.17,0,0,0,.41-.18,1,1,0,0,0,.3-.33.9.9,0,0,0,.12-.48.87.87,0,0,0-.13-.47,1.35,1.35,0,0,0-.35-.32,2.27,2.27,0,0,0-.52-.23l-.63-.21c-.22-.07-.43-.15-.64-.24a2.3,2.3,0,0,1-.58-.37,1.7,1.7,0,0,1-.41-.57,1.86,1.86,0,0,1-.16-.83,1.83,1.83,0,0,1,.22-.93,2,2,0,0,1,.59-.65,2.74,2.74,0,0,1,.83-.38,3.81,3.81,0,0,1,1-.12,3.25,3.25,0,0,1,1.09.19,2.57,2.57,0,0,1,1,.57Z"/>
      <path class="cls-2" d="M67.75,144.51A4,4,0,0,1,68,143a3.37,3.37,0,0,1,2-1.9,4.19,4.19,0,0,1,1.52-.26,4.24,4.24,0,0,1,1.53.26,3.55,3.55,0,0,1,1.21.74,3.37,3.37,0,0,1,.79,1.16,4,4,0,0,1,.29,1.54,3.87,3.87,0,0,1-.29,1.51,3.45,3.45,0,0,1-.79,1.18,3.63,3.63,0,0,1-1.21.77,4,4,0,0,1-1.53.28A4,4,0,0,1,70,148,3.49,3.49,0,0,1,68,146,3.87,3.87,0,0,1,67.75,144.51Zm1.37,0a2.87,2.87,0,0,0,.17,1,2.67,2.67,0,0,0,.5.83,2.33,2.33,0,0,0,.77.54,2.55,2.55,0,0,0,2,0,2.31,2.31,0,0,0,1.27-1.37,2.87,2.87,0,0,0,.18-1,2.8,2.8,0,0,0-.18-1,2.33,2.33,0,0,0-.49-.82,2.22,2.22,0,0,0-.77-.55,2.35,2.35,0,0,0-1-.2,2.32,2.32,0,0,0-1,.2,2.09,2.09,0,0,0-.76.55,2.35,2.35,0,0,0-.5.82A2.8,2.8,0,0,0,69.12,144.51Z"/>
      <path class="cls-2" d="M77.18,141h1.26v6h3v1.12H77.18Z"/>
      <path class="cls-2" d="M88.29,145.47a3,3,0,0,1-.22,1.15,2.64,2.64,0,0,1-.6.88,2.76,2.76,0,0,1-.9.55,3.24,3.24,0,0,1-1.13.2,3.15,3.15,0,0,1-1.13-.2,2.7,2.7,0,0,1-.91-.55,2.38,2.38,0,0,1-.6-.88,3,3,0,0,1-.21-1.15V141h1.26v4.43a2.13,2.13,0,0,0,.08.61,1.47,1.47,0,0,0,.26.55,1.37,1.37,0,0,0,.49.39,1.72,1.72,0,0,0,.76.15,1.67,1.67,0,0,0,.75-.15,1.37,1.37,0,0,0,.49-.39A1.66,1.66,0,0,0,87,146a2.55,2.55,0,0,0,.08-.61V141h1.26Z"/>
      <path class="cls-2" d="M91.82,142.09H89.65V141h5.6v1.1H93.08v6H91.82Z"/>
      <path class="cls-2" d="M96.67,141h1.26v7.08H96.67Z"/>
      <path class="cls-2" d="M99.75,144.51A4,4,0,0,1,100,143a3.37,3.37,0,0,1,.79-1.16,3.51,3.51,0,0,1,1.2-.74,4.15,4.15,0,0,1,1.52-.26,4.24,4.24,0,0,1,1.53.26,3.55,3.55,0,0,1,1.21.74,3.37,3.37,0,0,1,.79,1.16,4,4,0,0,1,.29,1.54,3.87,3.87,0,0,1-.29,1.51,3.45,3.45,0,0,1-.79,1.18,3.63,3.63,0,0,1-1.21.77,4,4,0,0,1-1.53.28A4,4,0,0,1,102,148a3.58,3.58,0,0,1-1.2-.77A3.45,3.45,0,0,1,100,146,3.87,3.87,0,0,1,99.75,144.51Zm1.37,0a2.87,2.87,0,0,0,.17,1,2.49,2.49,0,0,0,.5.83,2.33,2.33,0,0,0,.77.54,2.55,2.55,0,0,0,2,0,2.33,2.33,0,0,0,.77-.54,2.49,2.49,0,0,0,.5-.83,2.87,2.87,0,0,0,.18-1,2.8,2.8,0,0,0-.18-1,2.49,2.49,0,0,0-.49-.82,2.22,2.22,0,0,0-.77-.55,2.35,2.35,0,0,0-1-.2,2.32,2.32,0,0,0-1,.2,2.09,2.09,0,0,0-.76.55,2.35,2.35,0,0,0-.5.82A2.8,2.8,0,0,0,101.12,144.51Z"/>
      <path class="cls-2" d="M109.18,141h1.67l3.29,5.3h0V141h1.26v7.08h-1.6l-3.36-5.47h0v5.47h-1.26Z"/>
      <path class="cls-2" d="M121.19,142.47a1.61,1.61,0,0,0-.57-.44,1.77,1.77,0,0,0-.73-.17,2.12,2.12,0,0,0-.44,0,1.61,1.61,0,0,0-.4.17,1.07,1.07,0,0,0-.3.3.81.81,0,0,0-.11.45.78.78,0,0,0,.1.41.82.82,0,0,0,.27.29,1.91,1.91,0,0,0,.43.21l.55.18c.22.07.46.15.7.25a2.44,2.44,0,0,1,.67.37,1.77,1.77,0,0,1,.5.58,1.75,1.75,0,0,1,.2.87,2.19,2.19,0,0,1-.21,1,2.08,2.08,0,0,1-.56.71,2.76,2.76,0,0,1-.82.42,3.64,3.64,0,0,1-1,.14,3.72,3.72,0,0,1-1.35-.26,2.63,2.63,0,0,1-1.08-.75l.9-.84a1.77,1.77,0,0,0,.69.57,2,2,0,0,0,.86.21,1.86,1.86,0,0,0,.45-.06,1.17,1.17,0,0,0,.41-.18,1.18,1.18,0,0,0,.3-.33.9.9,0,0,0,.12-.48.87.87,0,0,0-.13-.47,1.35,1.35,0,0,0-.35-.32,2.27,2.27,0,0,0-.52-.23l-.63-.21c-.22-.07-.43-.15-.64-.24a2.3,2.3,0,0,1-.58-.37,1.7,1.7,0,0,1-.41-.57,1.86,1.86,0,0,1-.16-.83,1.83,1.83,0,0,1,.22-.93,2,2,0,0,1,.59-.65,2.74,2.74,0,0,1,.83-.38,3.81,3.81,0,0,1,1-.12A3.25,3.25,0,0,1,121,141a2.57,2.57,0,0,1,1,.57Z"/>
      <path class="cls-2" d="M127,141h2.31a4.71,4.71,0,0,1,1.1.11,2.28,2.28,0,0,1,.84.36,1.68,1.68,0,0,1,.54.64,2.22,2.22,0,0,1,.19.94,2.13,2.13,0,0,1-.22,1,1.84,1.84,0,0,1-.6.64,2.62,2.62,0,0,1-.87.36,5.22,5.22,0,0,1-1.06.11h-1v2.93H127Zm2.14,3.09a3.81,3.81,0,0,0,.59-.05,1.63,1.63,0,0,0,.5-.16,1,1,0,0,0,.35-.31,1,1,0,0,0,.13-.52,1,1,0,0,0-.13-.51.92.92,0,0,0-.35-.3,1.48,1.48,0,0,0-.49-.15,5.12,5.12,0,0,0-.56,0h-.92v2Z"/>
      <path class="cls-2" d="M135.34,141h1.09l3,7.08H138l-.66-1.62h-3.07l-.64,1.62h-1.41Zm1.6,4.38-1.09-2.88-1.11,2.88Z"/>
      <path class="cls-2" d="M140.78,141h2.46a4.5,4.5,0,0,1,1,.1,2.48,2.48,0,0,1,.83.35,1.88,1.88,0,0,1,.59.63,2,2,0,0,1,.22,1,1.8,1.8,0,0,1-.44,1.25,2.18,2.18,0,0,1-1.18.66l1.89,3.14H144.6l-1.64-3H142v3h-1.26Zm2.29,3a4.9,4.9,0,0,0,.54,0,1.69,1.69,0,0,0,.48-.15,1.1,1.1,0,0,0,.36-.32.91.91,0,0,0,.14-.52.88.88,0,0,0-.13-.48,1,1,0,0,0-.33-.29,1.19,1.19,0,0,0-.46-.15,2.77,2.77,0,0,0-.49,0H142v2Z"/>
      <path class="cls-2" d="M149,142.09h-2.17V141h5.6v1.1h-2.17v6H149Z"/>
      <path class="cls-2" d="M153.83,141h1.67l3.29,5.3h0V141h1.26v7.08h-1.6l-3.36-5.47h0v5.47h-1.26Z"/>
      <path class="cls-2" d="M162.23,141h4.68v1.1h-3.42v1.8h3.25V145h-3.25v2h3.61v1.12h-4.87Z"/>
      <path class="cls-2" d="M168.92,141h2.46a4.37,4.37,0,0,1,1,.1,2.44,2.44,0,0,1,.84.35,1.76,1.76,0,0,1,.58.63,1.86,1.86,0,0,1,.22,1,1.79,1.79,0,0,1-.43,1.25,2.21,2.21,0,0,1-1.19.66l1.89,3.14h-1.52l-1.64-3h-.92v3h-1.26Zm2.29,3a4.9,4.9,0,0,0,.54,0,1.76,1.76,0,0,0,.49-.15,1,1,0,0,0,.35-.32.84.84,0,0,0,.14-.52.8.8,0,0,0-.13-.48.85.85,0,0,0-.33-.29,1.09,1.09,0,0,0-.45-.15,2.89,2.89,0,0,0-.5,0h-1.14v2Z"/>
      <path class="cls-2" d="M91.1,156h2.31a4.66,4.66,0,0,1,1.1.11,2.14,2.14,0,0,1,.84.36,1.68,1.68,0,0,1,.54.64,2.07,2.07,0,0,1,.19.94,2,2,0,0,1-.22,1,1.81,1.81,0,0,1-.59.64,2.67,2.67,0,0,1-.88.36,5.14,5.14,0,0,1-1.06.11h-1v2.93H91.1Zm2.14,3.09a3.7,3.7,0,0,0,.59-.05,1.55,1.55,0,0,0,.5-.16.88.88,0,0,0,.35-.31.93.93,0,0,0,.13-.52.88.88,0,0,0-.13-.51.89.89,0,0,0-.34-.3,1.56,1.56,0,0,0-.49-.15,5.44,5.44,0,0,0-.57,0h-.92v2Z"/>
      <path class="cls-2" d="M97.8,156h2.46a4.43,4.43,0,0,1,1,.1,2.62,2.62,0,0,1,.84.35,1.79,1.79,0,0,1,.8,1.58,1.79,1.79,0,0,1-.43,1.25,2.21,2.21,0,0,1-1.19.66l1.89,3.14h-1.52l-1.64-3h-.92v3H97.8Zm2.29,3a4.9,4.9,0,0,0,.54,0,1.87,1.87,0,0,0,.49-.15,1,1,0,0,0,.35-.32.91.91,0,0,0,.14-.52.8.8,0,0,0-.13-.48,1,1,0,0,0-.33-.29,1.09,1.09,0,0,0-.45-.15,2.89,2.89,0,0,0-.5,0H99.06v2Z"/>
      <path class="cls-2" d="M104.35,159.51a4,4,0,0,1,.29-1.54,3.37,3.37,0,0,1,.79-1.16,3.33,3.33,0,0,1,1.2-.74,4.09,4.09,0,0,1,1.51-.26,4.24,4.24,0,0,1,1.53.26,3.46,3.46,0,0,1,1.21.74,3.39,3.39,0,0,1,.8,1.16,4,4,0,0,1,.28,1.54,3.87,3.87,0,0,1-.28,1.51,3.47,3.47,0,0,1-.8,1.18,3.53,3.53,0,0,1-1.21.77,4,4,0,0,1-1.53.28,3.9,3.9,0,0,1-1.51-.28,3.39,3.39,0,0,1-1.2-.77,3.45,3.45,0,0,1-.79-1.18A3.87,3.87,0,0,1,104.35,159.51Zm1.37,0a2.87,2.87,0,0,0,.18,1,2.33,2.33,0,0,0,.5.83,2.23,2.23,0,0,0,.77.54,2.38,2.38,0,0,0,1,.2,2.47,2.47,0,0,0,1-.2,2.37,2.37,0,0,0,.78-.54,2.67,2.67,0,0,0,.5-.83,3.11,3.11,0,0,0,.17-1,3,3,0,0,0-.17-1,2.51,2.51,0,0,0-.5-.82,2.13,2.13,0,0,0-.77-.55,2.32,2.32,0,0,0-1-.2,2.25,2.25,0,0,0-1,.2,2.13,2.13,0,0,0-.77.55,2.33,2.33,0,0,0-.49.82A2.8,2.8,0,0,0,105.72,159.51Z"/>
      <path class="cls-2" d="M120,162.7a5.28,5.28,0,0,1-1.18.4,6.64,6.64,0,0,1-1.49.15,4.18,4.18,0,0,1-1.57-.28,3.57,3.57,0,0,1-1.22-.77,3.45,3.45,0,0,1-.79-1.18,3.87,3.87,0,0,1-.29-1.51,3.81,3.81,0,0,1,.3-1.54,3.28,3.28,0,0,1,.81-1.16,3.46,3.46,0,0,1,1.21-.74,4.19,4.19,0,0,1,1.52-.26,4.82,4.82,0,0,1,1.56.24,3.23,3.23,0,0,1,1.13.65l-.87.94a2.15,2.15,0,0,0-.75-.51,2.67,2.67,0,0,0-1.06-.21,2.37,2.37,0,0,0-1,.2,2.09,2.09,0,0,0-.78.55,2.33,2.33,0,0,0-.49.82,2.8,2.8,0,0,0-.18,1,2.87,2.87,0,0,0,.18,1,2.33,2.33,0,0,0,.5.83,2.22,2.22,0,0,0,.79.54,2.69,2.69,0,0,0,1,.2,3.78,3.78,0,0,0,1.41-.25v-1.8h-1.49v-1H120Z"/>
      <path class="cls-2" d="M122.11,156h2.46a4.43,4.43,0,0,1,1,.1,2.62,2.62,0,0,1,.84.35,1.79,1.79,0,0,1,.8,1.58,1.79,1.79,0,0,1-.43,1.25,2.21,2.21,0,0,1-1.19.66l1.89,3.14h-1.52l-1.64-3h-.92v3h-1.26Zm2.29,3a4.9,4.9,0,0,0,.54,0,1.87,1.87,0,0,0,.49-.15,1,1,0,0,0,.35-.32.91.91,0,0,0,.14-.52.8.8,0,0,0-.13-.48,1,1,0,0,0-.33-.29,1.09,1.09,0,0,0-.45-.15,2.89,2.89,0,0,0-.5,0h-1.14v2Z"/>
      <path class="cls-2" d="M131.22,156h1.09l3.05,7.08h-1.44l-.66-1.62h-3.07l-.64,1.62h-1.41Zm1.6,4.38-1.09-2.88-1.11,2.88Z"/>
      <path class="cls-2" d="M136.66,156h2l1.84,5h0l1.82-5h2v7.08h-1.25v-5.69h0l-2.15,5.69H140l-2.12-5.69h0v5.69h-1.2Z"/>
      <polygon class="cls-2" points="86.66 40.48 86.66 46.69 80.79 46.69 80.79 40.48 78 40.48 78 55.3 80.79 55.3 80.79 49.3 86.66 49.3 86.66 55.3 89.45 55.3 89.45 40.48 86.66 40.48"/>
      <path class="cls-2" d="M98.38,50.51a2.31,2.31,0,0,1-4.62,0V44.16H91.12v6.35a5,5,0,0,0,9.9,0V44.16H98.38Z"/>
      <path class="cls-2" d="M118,44.82a1.63,1.63,0,0,1,1.86-1.72,4,4,0,0,1,2.49,1.28l1.73-2a5.48,5.48,0,0,0-4-1.92c-2.88,0-5,1.63-5,4.34,0,5,6.32,3.42,6.32,6.23a1.8,1.8,0,0,1-1.86,1.64,3.29,3.29,0,0,1-2.79-1.53l-1.92,1.94a5.76,5.76,0,0,0,4.56,2.21c2.73,0,4.93-1.65,4.93-4.24,0-5.57-6.32-3.84-6.32-6.25"/>
      <path class="cls-2" d="M157.07,52.94c-1.56,0-2-.66-2-1.67V46.82h2.43V44.57h-2.43v-3l-2.68,1.17v9.07c0,2.32,1.65,3.49,3.91,3.49a5.54,5.54,0,0,0,1.05-.08L158,52.9c-.3,0-.63,0-.93,0"/>
      <path class="cls-2" d="M108.45,44.24a4.13,4.13,0,0,0-3.11,1.21V40.57h-2.65v9A5.47,5.47,0,0,0,108,55.32,5.73,5.73,0,0,0,114,49.78a5.52,5.52,0,0,0-5.5-5.54m0,8.49a2.92,2.92,0,1,1,3-2.92,3,3,0,0,1-3,2.92"/>
      <path class="cls-2" d="M137.22,49.64a5.73,5.73,0,0,0-5.91-5.54A5.47,5.47,0,0,0,126,49.81v9h2.65V54a4.11,4.11,0,0,0,3.11,1.21,5.52,5.52,0,0,0,5.5-5.54m-2.52,0a3,3,0,1,1-3-2.92,3,3,0,0,1,3,2.92"/>
      <path class="cls-4" d="M145.78,44V41.4A2,2,0,0,0,147,39.6v-.06a2,2,0,0,0-2-2h-.07a2,2,0,0,0-2,2v.06A2,2,0,0,0,144,41.4V44a5.92,5.92,0,0,0-2.76,1.18l-7.31-5.52a2.1,2.1,0,0,0,.08-.56,2.31,2.31,0,1,0-2.31,2.24,2.42,2.42,0,0,0,1.14-.3L140,46.45a5.51,5.51,0,0,0,.09,6.37L137.92,55a1.91,1.91,0,0,0-.54-.09,1.84,1.84,0,1,0,1.9,1.84,1.77,1.77,0,0,0-.09-.52l2.16-2.1a6,6,0,0,0,3.53,1.16,5.65,5.65,0,0,0,.9-11.26m-.9,8.5a2.91,2.91,0,1,1,3-2.91,2.95,2.95,0,0,1-3,2.91"/>
    </g>
  </g>
</svg>
